HIERARCHY
ROOT Hips
{
	OFFSET 0.000000 100.481300 0.000000
	CHANNELS 6 Xposition Yposition Zposition Xrotation Yrotation Zrotation 
	JOINT Spine
	{
		OFFSET -0.279200 12.230698 -2.892100
		CHANNELS 3 Xrotation Yrotation Zrotation
		JOINT Spine1
		{
			OFFSET -0.232667 10.192268 -1.242267
			CHANNELS 3 Xrotation Yrotation Zrotation
			JOINT Spine1_split
			{
				OFFSET -0.232667 10.192268 -1.242267
				CHANNELS 3 Xrotation Yrotation Zrotation
				JOINT Spine2
				{
					OFFSET -0.232667 10.192268 -1.242267
					CHANNELS 3 Xrotation Yrotation Zrotation
					JOINT Neck
					{
						OFFSET -0.418800 17.814194 8.416900
						CHANNELS 3 Xrotation Yrotation Zrotation
						JOINT Head
						{
							OFFSET 0.000000 7.031097 3.806800
							CHANNELS 3 Xrotation Yrotation Zrotation
							JOINT HeadTop_End
							{
								OFFSET 0.000000 24.646606 12.978600
								CHANNELS 3 Xrotation Yrotation Zrotation
								End Site
								{
									OFFSET 0.000000 0.000000 0.000000
								}
							}
						}
					}
					JOINT LeftShoulder
					{
						OFFSET 8.476499 7.247704 -3.868750
						CHANNELS 3 Xrotation Yrotation Zrotation
						JOINT LeftShoulder_split
						{
							OFFSET 8.476499 7.247704 -3.868750
							CHANNELS 3 Xrotation Yrotation Zrotation
							JOINT LeftArm
							{
								OFFSET 9.308998 -2.777710 0.208600
								CHANNELS 3 Xrotation Yrotation Zrotation
								JOINT LeftForeArm
								{
									OFFSET 29.972298 0.000000 0.000000
									CHANNELS 3 Xrotation Yrotation Zrotation
									JOINT LeftHand
									{
										OFFSET 26.026505 0.000000 0.000000
										CHANNELS 3 Xrotation Yrotation Zrotation
										JOINT LeftHandThumb1
										{
											OFFSET 12.240501 -7.147949 9.207150
											CHANNELS 3 Xrotation Yrotation Zrotation
											JOINT LeftHandThumb2
											{
												OFFSET 4.138618 -2.389435 2.389433
												CHANNELS 3 Xrotation Yrotation Zrotation
												JOINT LeftHandThumb3
												{
													OFFSET 2.726913 -1.574387 1.574386
													CHANNELS 3 Xrotation Yrotation Zrotation
													JOINT LeftHandThumb4
													{
														OFFSET 3.941010 -2.275345 2.275342
														CHANNELS 3 Xrotation Yrotation Zrotation
														End Site
														{
															OFFSET 0.000000 0.000000 0.000000
														}
													}
												}
											}
										}
										JOINT LeftHandIndex1
										{
											OFFSET 24.424698 -1.985611 5.953459
											CHANNELS 3 Xrotation Yrotation Zrotation
											JOINT LeftHandIndex2
											{
												OFFSET 6.426697 0.000000 0.000000
												CHANNELS 3 Xrotation Yrotation Zrotation
												JOINT LeftHandIndex3
												{
													OFFSET 5.337898 0.000000 0.000000
													CHANNELS 3 Xrotation Yrotation Zrotation
													JOINT LeftHandIndex4
													{
														OFFSET 4.409401 0.000000 0.000000
														CHANNELS 3 Xrotation Yrotation Zrotation
														End Site
														{
															OFFSET 0.000000 0.000000 0.000000
														}
													}
												}
											}
										}
										JOINT LeftHandMiddle1
										{
											OFFSET 23.810104 0.000000 0.000000
											CHANNELS 3 Xrotation Yrotation Zrotation
											JOINT LeftHandMiddle2
											{
												OFFSET 7.176498 0.000000 0.000000
												CHANNELS 3 Xrotation Yrotation Zrotation
												JOINT LeftHandMiddle3
												{
													OFFSET 6.774902 0.000000 0.000000
													CHANNELS 3 Xrotation Yrotation Zrotation
													JOINT LeftHandMiddle4
													{
														OFFSET 5.403328 0.000000 0.000000
														CHANNELS 3 Xrotation Yrotation Zrotation
														End Site
														{
															OFFSET 0.000000 0.000000 0.000000
														}
													}
												}
											}
										}
										JOINT LeftHandRing1
										{
											OFFSET 22.908401 -0.839279 -6.020567
											CHANNELS 3 Xrotation Yrotation Zrotation
											JOINT LeftHandRing2
											{
												OFFSET 6.337502 0.000000 0.000000
												CHANNELS 3 Xrotation Yrotation Zrotation
												JOINT LeftHandRing3
												{
													OFFSET 5.779297 0.000000 0.000000
													CHANNELS 3 Xrotation Yrotation Zrotation
													JOINT LeftHandRing4
													{
														OFFSET 4.965698 0.000000 0.000000
														CHANNELS 3 Xrotation Yrotation Zrotation
														End Site
														{
															OFFSET 0.000000 0.000000 0.000000
														}
													}
												}
											}
										}
										JOINT LeftHandPinky1
										{
											OFFSET 20.037003 -1.530319 -10.950146
											CHANNELS 3 Xrotation Yrotation Zrotation
											JOINT LeftHandPinky2
											{
												OFFSET 5.254700 0.000000 0.000000
												CHANNELS 3 Xrotation Yrotation Zrotation
												JOINT LeftHandPinky3
												{
													OFFSET 4.810204 0.000000 0.000000
													CHANNELS 3 Xrotation Yrotation Zrotation
													JOINT LeftHandPinky4
													{
														OFFSET 3.647202 0.000000 0.000000
														CHANNELS 3 Xrotation Yrotation Zrotation
														End Site
														{
															OFFSET 0.000000 0.000000 0.000000
														}
													}
												}
											}
										}
									}
								}
							}
						}
					}
					JOINT RightShoulder
					{
						OFFSET -7.570500 7.247704 -3.868750
						CHANNELS 3 Xrotation Yrotation Zrotation
						JOINT RightShoulder_split
						{
							OFFSET -7.570500 7.247704 -3.868750
							CHANNELS 3 Xrotation Yrotation Zrotation
							JOINT RightArm
							{
								OFFSET -9.308998 -2.777710 0.208500
								CHANNELS 3 Xrotation Yrotation Zrotation
								JOINT RightForeArm
								{
									OFFSET -29.972300 0.000000 0.000000
									CHANNELS 3 Xrotation Yrotation Zrotation
									JOINT RightHand
									{
										OFFSET -26.026505 0.000000 0.000000
										CHANNELS 3 Xrotation Yrotation Zrotation
										JOINT RightHandThumb1
										{
											OFFSET -12.240601 -7.148026 9.207092
											CHANNELS 3 Xrotation Yrotation Zrotation
											JOINT RightHandThumb2
											{
												OFFSET -4.138618 -2.389435 2.389433
												CHANNELS 3 Xrotation Yrotation Zrotation
												JOINT RightHandThumb3
												{
													OFFSET -2.726974 -1.574417 1.574421
													CHANNELS 3 Xrotation Yrotation Zrotation
													JOINT RightHandThumb4
													{
														OFFSET -3.941010 -2.275345 2.275343
														CHANNELS 3 Xrotation Yrotation Zrotation
														End Site
														{
															OFFSET 0.000000 0.000000 0.000000
														}
													}
												}
											}
										}
										JOINT RightHandIndex1
										{
											OFFSET -24.424698 -1.985657 5.953444
											CHANNELS 3 Xrotation Yrotation Zrotation
											JOINT RightHandIndex2
											{
												OFFSET -6.426697 0.000000 0.000000
												CHANNELS 3 Xrotation Yrotation Zrotation
												JOINT RightHandIndex3
												{
													OFFSET -5.337898 0.000000 0.000000
													CHANNELS 3 Xrotation Yrotation Zrotation
													JOINT RightHandIndex4
													{
														OFFSET -4.409401 0.000000 0.000000
														CHANNELS 3 Xrotation Yrotation Zrotation
														End Site
														{
															OFFSET 0.000000 0.000000 0.000000
														}
													}
												}
											}
										}
										JOINT RightHandMiddle1
										{
											OFFSET -23.810097 0.000000 0.000000
											CHANNELS 3 Xrotation Yrotation Zrotation
											JOINT RightHandMiddle2
											{
												OFFSET -7.176498 0.000000 0.000000
												CHANNELS 3 Xrotation Yrotation Zrotation
												JOINT RightHandMiddle3
												{
													OFFSET -6.774902 0.000000 0.000000
													CHANNELS 3 Xrotation Yrotation Zrotation
													JOINT RightHandMiddle4
													{
														OFFSET -5.403328 0.000000 0.000000
														CHANNELS 3 Xrotation Yrotation Zrotation
														End Site
														{
															OFFSET 0.000000 0.000000 0.000000
														}
													}
												}
											}
										}
										JOINT RightHandRing1
										{
											OFFSET -22.908302 -0.839325 -6.020576
											CHANNELS 3 Xrotation Yrotation Zrotation
											JOINT RightHandRing2
											{
												OFFSET -6.337502 0.000000 0.000000
												CHANNELS 3 Xrotation Yrotation Zrotation
												JOINT RightHandRing3
												{
													OFFSET -5.779297 0.000000 0.000000
													CHANNELS 3 Xrotation Yrotation Zrotation
													JOINT RightHandRing4
													{
														OFFSET -4.965698 0.000000 0.000000
														CHANNELS 3 Xrotation Yrotation Zrotation
														End Site
														{
															OFFSET 0.000000 0.000000 0.000000
														}
													}
												}
											}
										}
										JOINT RightHandPinky1
										{
											OFFSET -20.037003 -1.530334 -10.950259
											CHANNELS 3 Xrotation Yrotation Zrotation
											JOINT RightHandPinky2
											{
												OFFSET -5.254700 0.000000 0.000000
												CHANNELS 3 Xrotation Yrotation Zrotation
												JOINT RightHandPinky3
												{
													OFFSET -4.810204 0.000000 0.000000
													CHANNELS 3 Xrotation Yrotation Zrotation
													JOINT RightHandPinky4
													{
														OFFSET -3.647202 0.000000 0.000000
														CHANNELS 3 Xrotation Yrotation Zrotation
														End Site
														{
															OFFSET 0.000000 0.000000 0.000000
														}
													}
												}
											}
										}
									}
								}
							}
						}
					}
				}
			}
		}
	}
	JOINT LeftUpLeg
	{
		OFFSET 15.427100 -6.655098 0.678600
		CHANNELS 3 Xrotation Yrotation Zrotation
		JOINT LeftLeg
		{
			OFFSET 4.081073 -39.591068 13.024000
			CHANNELS 3 Xrotation Yrotation Zrotation
			JOINT LeftFoot
			{
				OFFSET -4.081074 -37.707932 -15.979700
				CHANNELS 3 Xrotation Yrotation Zrotation
				JOINT LeftToeBase
				{
					OFFSET 5.346399 -15.068900 20.645000
					CHANNELS 3 Xrotation Yrotation Zrotation
					JOINT LeftToe_End
					{
						OFFSET 2.754700 0.931300 11.300900
						CHANNELS 3 Xrotation Yrotation Zrotation
						End Site
						{
							OFFSET 0.000000 0.000000 0.000000
						}
					}
				}
			}
		}
	}
	JOINT RightUpLeg
	{
		OFFSET -15.569500 -6.655098 0.678600
		CHANNELS 3 Xrotation Yrotation Zrotation
		JOINT RightLeg
		{
			OFFSET -4.081825 -39.591045 13.023800
			CHANNELS 3 Xrotation Yrotation Zrotation
			JOINT RightFoot
			{
				OFFSET 4.081824 -37.707954 -15.979600
				CHANNELS 3 Xrotation Yrotation Zrotation
				JOINT RightToeBase
				{
					OFFSET -5.346400 -15.068900 20.645000
					CHANNELS 3 Xrotation Yrotation Zrotation
					JOINT RightToe_End
					{
						OFFSET -2.754700 0.931300 11.300900
						CHANNELS 3 Xrotation Yrotation Zrotation
						End Site
						{
							OFFSET 0.000000 0.000000 0.000000
						}
					}
				}
			}
		}
	}
}
MOTION
Frames: 5
Frame Time: 0.016667
9.215719 88.249687 -6.288778 7.530739 -32.861263 -20.271943 20.028172 -5.223169 14.833702 14.882782 -0.853698 11.261195 0.000000 0.000000 0.000000 15.131239 -0.648047 9.675236 -9.983885 -2.860068 5.479614 44.315227 -21.168851 34.786389 0.000000 0.000000 0.000000 1.428806 -22.224474 -11.600550 0.000000 0.000000 0.000000 -29.377108 -24.713913 -57.022838 0.000017 -6.918368 0.000006 -21.663618 1.158983 -14.566405 18.491282 -0.461435 10.916068 1.284049 32.757604 -3.088946 2.117130 9.311154 -0.358619 0.000000 0.000005 -0.000000 0.339565 4.671349 -7.844261 0.387033 2.823578 -20.566229 0.034628 0.816834 -10.169815 0.000002 -0.000000 -0.000000 0.912582 8.769265 -15.831728 0.919078 3.991136 -33.400438 0.170569 1.488880 -12.264413 0.000001 0.000001 0.000000 2.555817 11.673027 -26.909195 1.710655 3.886781 -40.215461 0.544858 1.835070 -19.344151 -0.000000 0.000000 -0.000000 5.576068 16.029168 -36.940631 1.378693 4.077644 -45.645611 0.486586 2.853389 -20.524730 0.000001 0.000001 -0.000001 2.724538 8.294350 13.452997 0.000000 0.000000 0.000000 6.429286 49.813820 20.457863 -0.000000 22.722602 -0.000006 -0.688174 13.861784 2.493912 18.491279 0.461432 -10.916068 1.284071 -32.757601 3.088950 2.008699 -8.430480 1.114707 -0.000000 0.000001 0.000001 0.339565 -4.671355 7.844284 0.387032 -2.823578 20.566246 -0.193125 -0.216346 13.843937 -0.000000 -0.000002 -0.000003 0.912582 -8.769265 15.831745 0.919072 -3.991133 33.400414 0.216469 -1.688833 15.898052 -0.000000 0.000000 0.000002 2.555814 -11.673028 26.909183 1.710651 -3.886786 40.215461 -0.157952 0.035275 17.815346 0.000001 0.000001 -0.000001 5.576074 -16.029172 36.940638 1.378689 -4.077641 45.645628 -0.727749 -0.247555 22.122742 -0.000000 0.000001 -0.000001 -32.573596 -8.233984 29.069032 47.472079 4.080149 7.924497 -12.118360 30.587930 -12.716668 -0.315152 0.000005 -0.000006 0.000000 0.000001 0.000000 -26.570045 3.827600 25.476933 17.197090 -0.104839 7.276335 3.137880 12.865516 -6.992130 -4.013778 0.000001 0.000002 -0.000000 -0.000000 0.000000 
9.148531 88.247223 -6.292261 7.537683 -32.731943 -20.248880 19.954990 -5.260943 14.900578 14.845370 -0.865568 11.290748 0.000000 0.000000 0.000000 15.093012 -0.659106 9.704703 -9.957528 -2.861794 5.471383 44.377870 -21.263550 34.788926 -0.000000 0.000000 -0.000000 1.421054 -22.263300 -11.624755 0.000000 0.000000 0.000000 -29.239487 -24.946682 -57.154022 0.000004 -6.919552 -0.000006 -22.087452 0.509891 -14.614112 18.491279 -0.461434 10.916069 1.284050 32.757604 -3.088947 2.117130 9.311155 -0.358619 0.000000 -0.000003 0.000000 0.339563 4.671349 -7.844261 0.387031 2.823577 -20.566222 0.034627 0.816833 -10.169809 -0.000001 -0.000001 -0.000002 0.912581 8.769263 -15.831726 0.919082 3.991132 -33.400438 0.170572 1.488881 -12.264411 -0.000003 0.000000 -0.000002 2.555817 11.673026 -26.909197 1.710657 3.886781 -40.215471 0.544860 1.835069 -19.344149 0.000000 -0.000001 0.000000 5.576067 16.029165 -36.940631 1.378688 4.077644 -45.645611 0.486584 2.853389 -20.524732 -0.000001 -0.000000 0.000001 2.805149 8.300637 13.088455 0.000000 0.000000 0.000000 6.473854 49.476330 20.586808 -0.000003 23.126215 0.000002 -0.900187 13.002779 2.887930 18.491279 0.461434 -10.916070 1.284072 -32.757604 3.088948 2.008696 -8.430479 1.114705 -0.000002 0.000003 0.000002 0.339564 -4.671353 7.844283 0.387029 -2.823578 20.566246 -0.193126 -0.216346 13.843939 -0.000001 0.000001 0.000002 0.912583 -8.769265 15.831745 0.919072 -3.991134 33.400404 0.216467 -1.688831 15.898044 -0.000000 -0.000000 -0.000000 2.555812 -11.673027 26.909188 1.710652 -3.886787 40.215461 -0.157953 0.035277 17.815343 -0.000000 0.000000 0.000000 5.576072 -16.029170 36.940641 1.378688 -4.077641 45.645621 -0.727748 -0.247558 22.122745 0.000000 -0.000000 -0.000002 -32.626704 -8.189860 29.099949 47.447244 4.056768 7.925113 -12.114547 30.407002 -12.722422 -0.314758 -0.000005 0.000002 0.000000 -0.000001 -0.000000 -26.560541 3.824290 25.498420 17.239107 -0.087864 7.259581 3.072300 12.723819 -7.025050 -4.015245 0.000002 -0.000004 0.000000 -0.000000 -0.000000 
9.078720 88.250130 -6.294071 7.541604 -32.582663 -20.220329 19.884308 -5.297894 14.967767 14.807947 -0.877129 11.320876 0.000000 0.000000 0.000000 15.054854 -0.669730 9.734737 -9.931998 -2.864898 5.463867 44.440185 -21.362284 34.797608 0.000000 -0.000000 0.000001 1.413654 -22.300066 -11.647849 0.000000 0.000000 0.000000 -29.076747 -25.170173 -57.285340 0.000000 -6.920571 -0.000007 -22.500221 -0.128291 -14.674317 18.491284 -0.461435 10.916068 1.284049 32.757608 -3.088947 2.117129 9.311158 -0.358619 -0.000000 0.000001 -0.000000 0.339562 4.671348 -7.844259 0.387031 2.823577 -20.566220 0.034629 0.816833 -10.169815 0.000000 0.000000 -0.000003 0.912582 8.769264 -15.831723 0.919082 3.991133 -33.400434 0.170569 1.488881 -12.264413 0.000001 -0.000000 -0.000002 2.555819 11.673026 -26.909188 1.710655 3.886781 -40.215471 0.544857 1.835069 -19.344153 -0.000001 0.000000 0.000000 5.576070 16.029166 -36.940631 1.378690 4.077644 -45.645615 0.486587 2.853390 -20.524730 0.000004 0.000000 0.000001 2.887476 8.303043 12.724784 0.000000 0.000000 0.000000 6.502538 49.145055 20.735561 0.000003 23.528026 -0.000015 -1.075807 12.131584 3.207541 18.491286 0.461438 -10.916075 1.284072 -32.757604 3.088951 2.008701 -8.430481 1.114703 -0.000002 0.000001 0.000002 0.339563 -4.671354 7.844284 0.387031 -2.823577 20.566243 -0.193127 -0.216347 13.843938 -0.000001 -0.000000 -0.000002 0.912581 -8.769265 15.831742 0.919072 -3.991133 33.400414 0.216467 -1.688831 15.898054 0.000001 -0.000001 -0.000000 2.555813 -11.673026 26.909188 1.710650 -3.886786 40.215457 -0.157953 0.035275 17.815346 0.000000 -0.000002 0.000000 5.576073 -16.029170 36.940641 1.378687 -4.077641 45.645628 -0.727748 -0.247557 22.122747 0.000001 0.000003 -0.000001 -32.665284 -8.156503 29.120354 47.407578 4.058874 7.925039 -12.101230 30.197656 -12.739065 -0.314899 -0.000002 -0.000001 -0.000000 0.000001 0.000000 -26.541610 3.824623 25.516904 17.277933 -0.067738 7.233165 2.999777 12.561763 -7.053451 -4.016489 0.000005 0.000005 -0.000000 -0.000000 -0.000000 
9.006674 88.258713 -6.293852 7.541857 -32.414613 -20.186752 19.815499 -5.333083 15.035577 14.770574 -0.887989 11.351585 0.000000 0.000000 0.000000 15.016748 -0.679452 9.765313 -9.907221 -2.869382 5.456887 44.501138 -21.464008 34.810612 -0.000000 0.000000 -0.000001 1.406870 -22.333684 -11.669304 0.000000 0.000000 0.000000 -28.888828 -25.384550 -57.416326 -0.000013 -6.922042 -0.000004 -22.902242 -0.751417 -14.745275 18.491279 -0.461435 10.916066 1.284050 32.757611 -3.088946 2.117130 9.311155 -0.358619 0.000000 0.000000 0.000000 0.339561 4.671349 -7.844263 0.387029 2.823576 -20.566224 0.034629 0.816833 -10.169807 0.000002 0.000000 -0.000002 0.912579 8.769264 -15.831726 0.919078 3.991136 -33.400438 0.170572 1.488882 -12.264416 -0.000000 0.000002 -0.000000 2.555817 11.673027 -26.909197 1.710657 3.886781 -40.215467 0.544857 1.835069 -19.344153 -0.000001 0.000000 -0.000001 5.576069 16.029168 -36.940627 1.378691 4.077642 -45.645611 0.486586 2.853390 -20.524732 0.000001 -0.000000 -0.000000 2.971377 8.302332 12.360868 0.000000 0.000000 0.000000 6.513148 48.819938 20.906746 0.000003 23.926619 0.000001 -1.214034 11.254105 3.455848 18.491276 0.461435 -10.916072 1.284072 -32.757604 3.088948 2.008700 -8.430479 1.114701 -0.000002 -0.000001 0.000002 0.339564 -4.671352 7.844283 0.387031 -2.823579 20.566244 -0.193125 -0.216346 13.843935 0.000001 -0.000001 -0.000001 0.912582 -8.769264 15.831745 0.919072 -3.991134 33.400404 0.216468 -1.688831 15.898052 0.000000 -0.000002 -0.000002 2.555813 -11.673026 26.909188 1.710649 -3.886787 40.215461 -0.157953 0.035276 17.815345 -0.000000 -0.000002 -0.000001 5.576073 -16.029170 36.940641 1.378688 -4.077640 45.645625 -0.727748 -0.247557 22.122744 -0.000000 0.000000 -0.000002 -32.686734 -8.134872 29.128397 47.352622 4.081339 7.924216 -12.077583 29.972806 -12.765889 -0.314766 0.000011 0.000004 0.000000 0.000001 -0.000000 -26.510676 3.828305 25.529982 17.311410 -0.048775 7.199505 2.921686 12.386637 -7.078076 -4.017427 -0.000001 0.000003 0.000000 -0.000000 0.000000 
8.932949 88.271942 -6.291065 7.538607 -32.231181 -20.149823 19.747492 -5.365581 15.104702 14.733101 -0.897704 11.382966 0.000000 0.000000 0.000000 14.978637 -0.687934 9.796570 -9.882958 -2.875208 5.450334 44.559888 -21.567915 34.825413 0.000001 -0.000001 -0.000000 1.400852 -22.363194 -11.688520 0.000000 0.000000 0.000000 -28.676211 -25.589623 -57.546932 -0.000003 -6.924407 0.000002 -23.294336 -1.355446 -14.825026 18.491284 -0.461435 10.916069 1.284050 32.757608 -3.088946 2.117130 9.311155 -0.358619 0.000000 -0.000003 0.000000 0.339564 4.671348 -7.844259 0.387031 2.823578 -20.566226 0.034628 0.816831 -10.169812 0.000001 0.000001 -0.000003 0.912583 8.769265 -15.831728 0.919079 3.991136 -33.400438 0.170571 1.488882 -12.264417 0.000000 -0.000000 -0.000001 2.555817 11.673026 -26.909195 1.710654 3.886782 -40.215464 0.544855 1.835070 -19.344149 0.000001 -0.000000 -0.000001 5.576070 16.029166 -36.940624 1.378688 4.077644 -45.645611 0.486587 2.853389 -20.524730 0.000002 -0.000001 0.000001 3.056619 8.299168 11.995883 0.000000 0.000000 0.000000 6.503498 48.500842 21.102862 -0.000004 24.320685 -0.000021 -1.314846 10.373634 3.638585 18.491279 0.461435 -10.916071 1.284075 -32.757604 3.088948 2.008694 -8.430477 1.114705 -0.000003 0.000000 -0.000000 0.339564 -4.671355 7.844283 0.387030 -2.823578 20.566246 -0.193126 -0.216346 13.843933 0.000000 -0.000000 -0.000002 0.912583 -8.769265 15.831743 0.919071 -3.991134 33.400407 0.216467 -1.688831 15.898049 -0.000001 0.000002 0.000002 2.555814 -11.673026 26.909188 1.710649 -3.886785 40.215461 -0.157952 0.035276 17.815341 0.000000 -0.000001 0.000001 5.576073 -16.029170 36.940641 1.378686 -4.077642 45.645625 -0.727748 -0.247556 22.122745 -0.000000 -0.000002 -0.000001 -32.693144 -8.123018 29.124261 47.285758 4.114308 7.923211 -12.047570 29.742250 -12.796924 -0.314646 0.000002 0.000003 -0.000000 0.000000 -0.000000 -26.468641 3.834977 25.537630 17.340585 -0.033266 7.161113 2.838466 12.203820 -7.099603 -4.018050 0.000011 0.000004 -0.000000 -0.000000 -0.000000 
